<svg id="color" enable-background="new 0 0 64 64" height="512" viewBox="0 0 64 64" width="512" xmlns="http://www.w3.org/2000/svg"><g><g><path d="m19.03 18.04c2.75 2.71 6.9 2.67 10.84 1.67-.29 1.89-1.07 3.68-2.27 5.18-2.71-1.15-5.62-3.27-8.57-6.85z" fill="#7b2cbf"/><path d="m36.02 17.45c.1 3.01-.6 5.99-2 8.61l-.01-.01c-1.91.11-4.09-.17-6.41-1.16 1.2-1.5 1.98-3.29 2.27-5.18 2.2-.55 4.35-1.41 6.15-2.26z" fill="#fc0"/><path d="m25.6 9.25c.91-2.35 1.12-4.54.95-6.45v-.01c3.35 1.65 6.19 4.41 7.89 8.06.99 2.14 1.51 4.38 1.58 6.6-1.8.85-3.95 1.71-6.15 2.26.32-2.07.05-4.26-.9-6.31-.79-1.7-1.97-3.1-3.37-4.15z" fill="#f48c06"/><path d="m28.97 13.4c.95 2.05 1.22 4.24.9 6.31-3.94 1-8.09 1.04-10.84-1.67 3.49-3.07 5.51-6.04 6.57-8.79 1.4 1.05 2.58 2.45 3.37 4.15z" fill="#faa307"/><path d="m25.6 9.25c-1.06 2.75-3.08 5.72-6.57 8.79 2.62-2.84 2.44-6.98 1.32-10.89 1.9.22 3.71.95 5.25 2.1z" fill="#7b2cbf"/><path d="m17.9 1.07c3-.2 5.99.41 8.65 1.72v.01c.17 1.91-.04 4.1-.95 6.45-1.54-1.15-3.35-1.88-5.25-2.1-.63-2.18-1.55-4.3-2.45-6.07z" fill="#6a28af"/><path d="m20.35 7.15c-1.97-.25-4.03.04-5.96.94-1.47.69-2.72 1.66-3.7 2.82-2.29-1.08-4.46-1.44-6.37-1.4 1.68-2.91 4.24-5.35 7.52-6.88 1.97-.91 4.02-1.43 6.06-1.56v.01c.9 1.77 1.82 3.89 2.45 6.07z" fill="#f48c06"/><path d="m20.35 7.15c1.12 3.91 1.3 8.05-1.32 10.89-2.83-3.68-5.67-5.9-8.34-7.13.98-1.16 2.23-2.13 3.7-2.82 1.93-.9 3.99-1.19 5.96-.94z" fill="#faa307"/><path d="m19.03 18.04c-3.45 3.11-5.42 6.12-6.44 8.88-1.47-1.07-2.68-2.5-3.5-4.25-1.01-2.17-1.25-4.49-.83-6.67 3.98-.86 8.11-.76 10.77 2.04z" fill="#faa307"/><path d="m10.69 10.91c2.67 1.23 5.51 3.45 8.34 7.13-2.66-2.8-6.79-2.9-10.77-2.04.35-1.87 1.18-3.63 2.43-5.09z" fill="#7b2cbf"/><path d="m10.69 10.91c-1.25 1.46-2.08 3.22-2.43 5.09-2.23.48-4.4 1.27-6.23 2.05h-.01c0-3.01.8-5.96 2.3-8.54 1.91-.04 4.08.32 6.37 1.4z" fill="#6a28af"/><path d="m12.59 26.92c-.88 2.37-1.06 4.55-.87 6.46-3.44-1.63-6.36-4.44-8.1-8.16-1.08-2.32-1.6-4.77-1.6-7.17h.01c1.83-.78 4-1.57 6.23-2.05-.42 2.18-.18 4.5.83 6.67.82 1.75 2.03 3.18 3.5 4.25z" fill="#f48c06"/><path d="m20.4 34.98c-3.01.25-6-.32-8.68-1.6-.19-1.91-.01-4.09.87-6.46 1.55 1.12 3.37 1.82 5.27 2.02.65 2.18 1.61 4.28 2.54 6.04z" fill="#6a28af"/><path d="m19.03 18.04c-2.58 2.87-2.36 7-1.17 10.9-1.9-.2-3.72-.9-5.27-2.02 1.02-2.76 2.99-5.77 6.44-8.88z" fill="#7b2cbf"/><path d="m19.03 18.04c2.95 3.58 5.86 5.7 8.57 6.85-1.02 1.28-2.34 2.35-3.93 3.09-1.88.88-3.89 1.17-5.81.96-1.19-3.9-1.41-8.03 1.17-10.9z" fill="#faa307"/><path d="m27.6 24.89c2.32.99 4.5 1.27 6.41 1.16l.01.01c-1.38 2.58-3.43 4.81-6.04 6.43-.56.34-1.15.66-1.77.95-.61.28-1.23.53-1.86.74-1.3.43-2.62.69-3.95.8-.93-1.76-1.89-3.86-2.54-6.04 1.92.21 3.93-.08 5.81-.96 1.59-.74 2.91-1.81 3.93-3.09z" fill="#f48c06"/><path d="m29.87 19.71c-1.283.326-2.588.547-3.861.607-.51.95-1.078 1.86-1.706 2.719 1.123.787 2.226 1.4 3.296 1.855 1.201-1.501 1.981-3.291 2.271-5.181z" fill="#5a189a"/><path d="m36.02 17.45c-1.8.85-3.95 1.71-6.15 2.26-.29 1.89-1.07 3.68-2.27 5.18 2.32.99 4.5 1.27 6.41 1.16l.01.01c1.4-2.62 2.1-5.6 2-8.61z" fill="#4d1989"/><path d="m36.02 17.45c-.07-2.22-.59-4.46-1.58-6.6-1.299-2.789-3.266-5.053-5.615-6.705.375 2.938.294 5.845-.206 8.609.118.215.247.421.352.646.95 2.05 1.22 4.24.9 6.31 2.199-.55 4.349-1.41 6.149-2.26z" fill="#e85d04"/><path d="m28.97 13.4c-.105-.225-.234-.431-.352-.646-.488 2.697-1.369 5.253-2.609 7.563 1.272-.06 2.577-.281 3.861-.607.32-2.07.05-4.26-.9-6.31z" fill="#f48c06"/><path d="m8.615 31.455c.971.752 2.007 1.405 3.105 1.925-.072-.72-.09-1.478-.039-2.27-.987.187-2.012.299-3.066.345z" fill="#f48c06"/><path d="m11.72 33.38c2.68 1.28 5.67 1.85 8.68 1.6-.93-1.76-1.89-3.86-2.54-6.04-.046-.005-.09-.018-.136-.023-1.83 1.026-3.849 1.779-6.043 2.194-.051.791-.033 1.549.039 2.269z" fill="#4d1989"/><path d="m17.835 28.852c.009.029.016.059.025.088 1.92.21 3.93-.08 5.81-.96 1.59-.74 2.91-1.81 3.93-3.09-1.071-.454-2.173-1.067-3.296-1.855-1.736 2.375-3.915 4.363-6.469 5.817z" fill="#f48c06"/><path d="m34.01 26.05c-1.91.11-4.09-.17-6.41-1.16-1.02 1.28-2.34 2.35-3.93 3.09-1.88.88-3.89 1.17-5.81.96.65 2.18 1.61 4.28 2.54 6.04 1.33-.11 2.65-.37 3.95-.8.63-.21 1.25-.46 1.86-.74.62-.29 1.21-.61 1.77-.95 2.61-1.62 4.66-3.85 6.04-6.43z" fill="#e85d04"/><path d="m23.21 49.99 6.79 1.01s-1.19.45-.35 3.15c0 0-2.28 2.19-2.32 4.42 0 0-3.17 1.73-2.33 4.43l-5.21-6.48v-.01c1.31-.34 2.48-1.21 3.15-2.5.68-1.29.73-2.74.27-4.02z" fill="#6a28af"/><path d="m12.82 44.53v.01c-1.31.34-2.48 1.21-3.15 2.5-.68 1.29-.73 2.74-.27 4.02l-8.3-.62c2.7-.84 2.32-4.42 2.32-4.42 1.82-1.31 2.33-4.43 2.33-4.43 2.7-.84 2.25-3.59 2.25-3.59z" fill="#6a28af"/><path d="m9.4 51.06-8.3-.62c1.06-.33 1.64-1.08 1.96-1.87l6.06.46c-.05.69.05 1.38.28 2.03z" fill="#4d1989"/><path d="m18.56 49.45c.98.51 1.35 1.73.84 2.7-.35.68-1.05 1.07-1.77 1.07-.31 0-.63-.07-.93-.23l-2.65-1.39c-.98-.51-1.36-1.73-.84-2.7.35-.68 1.05-1.07 1.77-1.07.31 0 .63.07.93.23z" fill="#fc0"/><path d="m19.79 56.51-1.28.17c-.79 0-1.58-.18-2.32-.57l-4.42-2.32c-1.15-.6-1.96-1.59-2.37-2.73-.46-1.28-.41-2.73.27-4.02.67-1.29 1.84-2.16 3.15-2.5l1.28-.17c.79 0 1.58.18 2.32.57l4.42 2.32c1.15.6 1.96 1.59 2.37 2.73.46 1.28.41 2.73-.27 4.02-.67 1.29-1.84 2.16-3.15 2.5zm-.39-4.36c.51-.97.14-2.19-.84-2.7l-2.65-1.39c-.3-.16-.62-.23-.93-.23-.72 0-1.42.39-1.77 1.07-.52.97-.14 2.19.84 2.7l2.65 1.39c.3.16.62.23.93.23.72 0 1.42-.39 1.77-1.07z" fill="#7b2cbf"/><path d="m22.94 54.01c-.67 1.29-1.84 2.16-3.15 2.5l-1.28.17c-.79 0-1.58-.18-2.32-.57l-4.42-2.32c-1.15-.6-1.96-1.59-2.37-2.73-.06-.16-.11-.33-.15-.5.41.49.92.92 1.52 1.23l4.42 2.32c.74.39 1.53.57 2.32.57l1.28-.17c1.31-.34 2.48-1.21 3.15-2.5.59-1.12.71-2.37.42-3.51.37.45.66.95.85 1.49.46 1.28.41 2.73-.27 4.02z" fill="#5a189a"/><path d="m24.94 55.01c-.67 1.29-1.84 2.16-3.15 2.5l-1.09.14-.91-1.13v-.01c1.31-.34 2.48-1.21 3.15-2.5.68-1.29.73-2.74.27-4.02l1.65.25c.14.24.26.49.35.75.46 1.28.41 2.73-.27 4.02z" fill="#4d1989"/><path d="m41.61 60.2c.47 1 .04 2.19-.97 2.66-.27.12-.56.18-.84.18-.75 0-1.47-.42-1.81-1.15l-13.64-27.71c.63-.21 1.25-.46 1.86-.74.62-.29 1.21-.61 1.77-.95z" fill="#eaeaea"/><path d="m41.78 60.78c.12.85-.32 1.7-1.14 2.08-.27.12-.56.18-.84.18-.75 0-1.47-.42-1.81-1.15l-13.64-27.71c.56-.19 1.12-.41 1.66-.65l12.98 26.36c.34.73 1.06 1.15 1.81 1.15.28 0 .57-.06.84-.18.05-.02.1-.05.14-.08z" fill="#b7b7b7"/><path d="m50.55 29.93c.83-.37 1.68.48 1.31 1.32l-2.42 5.5-4.4-4.4z" fill="#7b2cbf"/><path d="m49.44 36.75-2.16 4.91-7.15-7.15 4.91-2.16z" fill="#fc0"/><path d="m47.28 41.66-1.57 3.57c-.28.65-1.13.8-1.62.31l-7.84-7.83c-.49-.5-.33-1.34.31-1.63l3.57-1.57z" fill="#f48c06"/><path d="m50.55 29.93-1.09.479c-.386 1.597-.974 3.147-1.763 4.599l1.742 1.742 2.42-5.5c.371-.84-.479-1.69-1.309-1.32z" fill="#5a189a"/><path d="m44.703 39.083 2.577 2.577 2.16-4.91-1.742-1.742c-.803 1.477-1.803 2.854-2.995 4.075z" fill="#faa307"/><path d="m40.696 42.15 3.394 3.39c.49.49 1.34.34 1.62-.31l1.57-3.57-2.577-2.577c-1.16 1.188-2.504 2.222-4.007 3.067z" fill="#e85d04"/><path d="m39.19 8.18 4.7 7.61c-.14.51-.41.97-.77 1.33-.54.54-1.29.88-2.12.88-1.66 0-3-1.34-3-3v-1.5c0-1.9.43-3.71 1.19-5.32z" fill="#f48c06"/><path d="m44 13.73v1.27c0 .27-.04.54-.11.79l-4.7-7.61c1.14-2.42 3.04-4.42 5.38-5.69l3.17 5.14c-2.25 1.08-3.74 3.47-3.74 6.1z" fill="#7b2cbf"/><path d="m63 13.87v4.06l-10.34-16.74c5.99 1.05 10.34 6.5 10.34 12.68z" fill="#7b2cbf"/><path d="m52.66 1.19 10.34 16.74v14.4l-6-9.71v-9.12c0-3.87-3.39-6.95-7.36-6.44-.68.09-1.32.28-1.9.57l-3.17-5.14c2.09-1.12 4.54-1.67 7.13-1.43.32.03.64.07.96.13z" fill="#f48c06"/><path d="m63 32.33v14.41l-6-9.72v-14.4z" fill="#7b2cbf"/><path d="m63 46.74v13.26c0 .32-.05.63-.15.91l-5.85-9.48v-14.41z" fill="#f48c06"/><path d="m57 51.43 5.85 9.48c-.38 1.22-1.51 2.09-2.85 2.09-1.66 0-3-1.34-3-3z" fill="#7b2cbf"/><path d="m43.89 15.79c-.14.51-.41.97-.77 1.33-.54.54-1.29.88-2.12.88-.55 0-1.06-.15-1.5-.4.23-.14.44-.3.62-.48.36-.36.63-.82.77-1.33.07-.25.11-.52.11-.79v-1.27c0-.72.11-1.43.33-2.09z" fill="#e85d04"/><path d="m47.74 7.63c-2.25 1.08-3.74 3.47-3.74 6.1v1.27c0 .27-.04.54-.11.79l-2.56-4.15c.55-1.76 1.78-3.23 3.41-4.01.58-.29 1.22-.48 1.9-.57.24-.03.49-.05.72-.05z" fill="#5a189a"/><path d="m63 13.87v4.06l-3.03-4.9c-.28-4.41-2.77-8.36-6.45-10.45l-.86-1.39c5.99 1.05 10.34 6.5 10.34 12.68z" fill="#5a189a"/><g fill="#e85d04"><path d="m63 17.93v14.4l-3-4.85v-13.61c0-.28-.01-.56-.03-.84z"/><path d="m53.52 2.58c-1.17-.67-2.47-1.14-3.86-1.39-.22-.04-.43-.07-.65-.1.87-.1 1.77-.12 2.69-.03.32.03.64.07.96.13z"/><path d="m49.01 7.18c-.45.1-.87.25-1.27.45l-.38-.62c.57-.02 1.12.05 1.65.17z"/></g><path d="m63 32.33v14.41l-3-4.86v-14.4z" fill="#5a189a"/><path d="m63 46.74v13.26c0 .32-.05.63-.15.91l-2.85-4.62v-14.41z" fill="#e85d04"/><path d="m62.85 60.91c-.38 1.22-1.51 2.09-2.85 2.09-.55 0-1.06-.15-1.5-.4.64-.37 1.13-.97 1.35-1.69.1-.28.15-.59.15-.91v-3.71z" fill="#5a189a"/><path d="m13.645 3.543c-1.93 0-7.516 4.337-5.582 4.337.821 0 1.507-.988 2.791-1.89 1.734-1.218 3.902-2.447 2.791-2.447z" fill="#f9c97d"/><path d="m44.043 4.799c-.518 0-1.175.642-1.834 1.296-.98.972-1.822 2.085-1.052 2.085.51 0 .887-.881 1.541-1.522.995-.977 2.123-1.859 1.345-1.859z" fill="#a969ed"/><path d="m5.451 11.304c-.595 0-.999.807-1.304 1.647-.354.976-.611 1.793.082 1.793.607 0 .218-.641.519-1.5.336-.961 1.384-1.94.703-1.94z" fill="#a969ed"/><path d="m48.289 2.587c-.64-.07-2.235.553-1.594.623.639.07 2.234-.553 1.594-.623z" fill="#f9c97d"/></g><g fill="#472b3c"><path d="m52.899.221c-.012-.003-.023-.003-.035-.005-.352-.063-.705-.12-1.066-.154-3.845-.364-7.533.865-10.379 3.457-2.808 2.556-4.419 6.194-4.419 9.981v1.5c0 2.206 1.794 4 4 4s4-1.794 4-4v-1.273c0-2.888 2.052-5.33 4.772-5.68 1.605-.206 3.151.265 4.355 1.323 1.19 1.047 1.873 2.552 1.873 4.13v46.5c0 2.206 1.794 4 4 4s4-1.794 4-4v-46.134c0-6.711-4.794-12.491-11.101-13.645zm5.101 50.926v-10.604l4 6.48v10.605zm0-14.41v-10.596l4 6.473v10.603zm-17-19.737c-1.103 0-2-.897-2-2v-1.5c0-1.035.156-2.052.427-3.034l3.352 5.429c-.33.652-.999 1.105-1.779 1.105zm14.449-9.131c-1.376-1.21-3.145-1.867-4.965-1.867-.321 0-.645.021-.967.062-.474.061-.933.169-1.373.317l-1.174-1.906c-.291-.47-.904-.617-1.377-.326-.47.29-.615.906-.326 1.376l1.081 1.752c-1.735 1.19-2.944 3.111-3.259 5.312l-2.744-4.443c.617-1.169 1.425-2.242 2.422-3.15 2.425-2.207 5.566-3.254 8.845-2.944.151.014.297.044.446.065l2.917 4.723c.188.306.517.475.852.475.18 0 .36-.048.524-.149.47-.29.615-.906.325-1.376l-1.785-2.89c4.169 1.794 7.109 6.092 7.109 10.966v.542l-1.821-2.949c-.289-.47-.906-.616-1.376-.325-.47.29-.615.906-.325 1.376l3.522 5.704v10.596l-4-6.473v-8.837c0-2.153-.93-4.205-2.551-5.631zm4.551 54.131c-1.103 0-2-.897-2-2v-5.046l3.726 6.038c-.346.599-.986 1.008-1.726 1.008z"/><path d="m29.256 32.826c7.085-4.895 9.846-14.336 6.087-22.397-4.194-8.996-14.924-12.902-23.92-8.707s-12.902 14.925-8.707 23.921c3.05 6.542 9.558 10.392 16.341 10.392 2.543 0 5.126-.542 7.58-1.686.313-.146.604-.318.904-.479l13.164 26.753c.113.242.125.513.033.764-.091.251-.274.451-.518.564-.24.112-.514.125-.764.033-.251-.091-.451-.275-.573-.536l-12.247-24.889c-.244-.496-.843-.701-1.339-.456-.496.244-.7.843-.456 1.339l12.239 24.871c.339.726.939 1.277 1.692 1.551.335.122.682.183 1.028.183.432 0 .862-.095 1.265-.283.728-.338 1.278-.939 1.553-1.693.273-.753.238-1.567-.109-2.313zm-.091-8.427c.443-.709.82-1.465 1.113-2.269.194-.533.335-1.076.452-1.622 1.465-.409 2.909-.928 4.268-1.506-.131 2.11-.685 4.168-1.606 6.056-1.427.013-2.837-.206-4.227-.659zm-16.017 4.052c.569.32 1.162.606 1.787.834.711.259 1.436.443 2.166.564.476 1.435 1.059 2.843 1.698 4.165-2.115-.034-4.191-.485-6.113-1.316-.079-1.426.075-2.842.462-4.247zm-4.01-11.618c3.142-.594 6.224-.473 8.42 1.222-2.615 2.522-4.313 4.973-5.361 7.243-.909-.856-1.661-1.882-2.204-3.048-.801-1.718-1.082-3.583-.855-5.417zm-4.214-6.298c1.421.033 2.821.302 4.194.806-.54.802-.997 1.668-1.336 2.6-.149.409-.27.822-.373 1.239-1.474.358-2.922.827-4.287 1.354.201-2.103.816-4.14 1.802-5.999zm4.736 4.09c.911-2.503 2.742-4.501 5.156-5.626 1.34-.625 2.771-.939 4.208-.939.177 0 .355.014.532.023.752 2.945.896 6.019-.554 8.334-1.371-1.652-2.804-3.074-4.28-4.209-.438-.338-1.066-.255-1.402.183-.337.438-.255 1.065.183 1.402.368.283.733.584 1.096.905-1.578-.269-3.269-.215-4.973.039.013-.038.021-.075.034-.112zm9.822-12.571c2.112.063 4.184.537 6.095 1.393.06 1.432-.113 2.851-.52 4.254-.612-.355-1.255-.666-1.934-.913-.657-.239-1.327-.408-2.002-.53-.454-1.447-1.018-2.869-1.639-4.204zm9.476 16.83c-3.01.665-6.134.708-8.408-.882 2.444-2.291 4.258-4.663 5.434-7.104.853.832 1.564 1.813 2.082 2.925.749 1.606 1.041 3.342.892 5.061zm-6.519-10.217c.683.249 1.325.572 1.925.951-.569 1.275-1.33 2.536-2.29 3.778.166-1.591.005-3.273-.361-4.958.244.068.487.141.726.229zm-5.965 19.003c-.287-.077-.572-.162-.854-.265-.638-.232-1.242-.526-1.808-.872.55-1.28 1.291-2.549 2.231-3.804-.143 1.591.041 3.266.431 4.941zm2.614-8.034c2.36 2.662 4.689 4.422 6.873 5.558-.787.761-1.697 1.402-2.719 1.879-1.463.682-3.035.988-4.604.925-.797-2.942-.984-6.021.45-8.362zm4.478 1.593c1.582.217 3.267.111 4.962-.199-.044.138-.079.278-.129.416-.287.788-.674 1.519-1.133 2.195-1.255-.611-2.49-1.411-3.7-2.412zm9.964-9.956c.84 1.802 1.297 3.683 1.436 5.558-1.162.521-2.525 1.066-3.976 1.514.049-1.83-.316-3.661-1.112-5.369-.738-1.583-1.797-2.947-3.089-4.046.488-1.446.751-2.915.801-4.403 2.504 1.582 4.599 3.87 5.94 6.746zm-21.263-7.738c1.635-.762 3.333-1.223 5.034-1.406.561 1.149 1.154 2.5 1.652 3.945-1.701.01-3.395.373-4.983 1.114-1.349.629-2.538 1.493-3.543 2.532-1.409-.581-2.852-.967-4.309-1.12 1.54-2.116 3.615-3.884 6.149-5.065zm-7.739 21.263c-.919-1.971-1.397-4.036-1.481-6.085 1.272-.521 2.637-1.01 4.031-1.396-.121 1.966.246 3.943 1.102 5.778.767 1.646 1.882 3.055 3.244 4.176-.516 1.596-.728 3.072-.761 4.391-2.589-1.585-4.759-3.914-6.135-6.864zm21.264 7.739c-1.563.728-3.184 1.173-4.809 1.372-.578-1.138-1.19-2.477-1.709-3.909 1.644-.033 3.28-.399 4.815-1.115 1.474-.687 2.764-1.648 3.823-2.819 1.56.584 3.017.87 4.325.965-1.567 2.307-3.74 4.244-6.445 5.506z"/><path d="m30.147 50.011-6.233-.925c-.539-1.121-1.422-2.088-2.605-2.71l-4.427-2.326c-2.93-1.539-6.564-.407-8.102 2.521-.554 1.055-.775 2.225-.655 3.389l-4.485-.332c.617-1.021.812-2.239.807-3.161 1.318-1.227 1.931-3.17 2.167-4.136.989-.444 1.602-1.132 1.964-1.864l1.571 2.127c.328.444.954.54 1.398.211.444-.328.539-.954.211-1.398l-2.953-4c-.274-.371-.767-.507-1.193-.328-.426.18-.673.627-.598 1.083.013.077.289 1.897-1.561 2.473-.361.112-.627.42-.69.792-.126.757-.718 2.912-1.922 3.777-.29.208-.446.558-.412.913.011.113.249 2.787-1.627 3.371-.459.143-.751.591-.697 1.069.055.477.441.848.92.883l7.709.571c.556 1.134 1.434 2.068 2.567 2.663l4.426 2.326c.888.466 1.84.688 2.78.688.296 0 .59-.027.881-.07l4.832 6.01c.196.242.486.372.78.372.16 0 .321-.038.47-.117.424-.226.627-.721.485-1.18-.584-1.876 1.752-3.198 1.849-3.251.315-.171.514-.499.521-.858.03-1.483 1.468-3.193 2.019-3.726.271-.263.373-.657.261-1.017-.394-1.265-.239-1.838-.14-1.966.358-.189.572-.58.528-.991-.047-.453-.395-.816-.846-.883zm-13.49 5.217-4.426-2.326c-.941-.494-1.634-1.331-1.953-2.354-.318-1.024-.222-2.106.273-3.047.494-.941 1.331-1.634 2.354-1.953 1.024-.318 2.106-.222 3.047.272l4.426 2.326c1.952 1.026 2.706 3.449 1.681 5.401-1.026 1.953-3.447 2.707-5.402 1.681zm9.717 2.758c-.762.52-1.655 1.371-2.146 2.458l-2.823-3.511c.998-.547 1.856-1.375 2.424-2.456.55-1.047.754-2.185.661-3.285l3.921.582c-.097.53-.086 1.215.126 2.096-.664.749-1.903 2.346-2.163 4.116z"/><path d="m19.028 48.566-2.655-1.395c-.707-.372-1.518-.445-2.286-.207-.767.238-1.394.759-1.765 1.467s-.445 1.52-.207 2.286c.238.767.759 1.394 1.467 1.765l2.656 1.395c.444.233.92.344 1.39.344 1.08 0 2.125-.583 2.661-1.604.769-1.464.204-3.282-1.261-4.051zm-.51 3.121c-.256.489-.863.676-1.35.42l-2.656-1.395c-.234-.123-.408-.333-.487-.589s-.056-.527.067-.762c.123-.234.333-.408.589-.487.1-.031.201-.046.302-.046.159 0 .316.038.46.114l2.655 1.395c.488.256.676.862.42 1.35z"/><path d="m50.143 29.014-13.985 6.154c-.604.266-1.039.813-1.16 1.462-.122.649.084 1.315.551 1.783l7.832 7.832c.378.379.888.586 1.413.586.122 0 .245-.011.368-.034.649-.121 1.196-.554 1.464-1.159 0 0 0 0 0-.001l6.153-13.986c.335-.761.172-1.632-.416-2.219-.589-.59-1.461-.752-2.22-.418zm-4.433 16.219-.916-.403-7.832-7.832 2.947-1.297 6.182 6.183-1.296 2.946zm3.405-10.223-1.408-1.408c-.391-.391-1.023-.391-1.414 0s-.391 1.023 0 1.414l1.958 1.958-1.296 2.947-5.083-5.083 9.076-3.994z"/></g></g></svg>