<?xml version="1.0" encoding="iso-8859-1"?>
<!-- Generator: Adobe Illustrator 19.0.0, SVG Export Plug-In . SVG Version: 6.00 Build 0)  -->
<svg version="1.1" id="Capa_1" xmlns="http://www.w3.org/2000/svg" xmlns:xlink="http://www.w3.org/1999/xlink" x="0px" y="0px"
	 viewBox="0 0 512.002 512.002" style="enable-background:new 0 0 512.002 512.002;" xml:space="preserve">
<path style="fill:#9AD14B;" d="M335.383,81.155c-10.88,2.752-21.164-4.953-13.712-16.475c1.617-2.511,4.322-4.07,5.113-7.166
	c4.059-15.833-13.253-20.476-24.558-14.526c-10.101,5.308-15.982,15.833-19.192,26.106c-7.452,23.916-0.78,52.074,8.553,76.059
	c-9.424-2.098-21.05-3.52-35.255-3.52c-13.265,0-24.283,1.238-33.352,3.107c1.387-23.32,5.549-46.846,12.749-68.893
	c7.452-22.861,19.33-46.88,40.425-59.985c27.47-17.06,64.937-7.28,76.93,23.732C359.861,57.124,355.252,76.144,335.383,81.155z"/>
<path style="fill:#90BC42;" d="M356.074,56.564c-10.246-25.865-41.634-33.979-64.677-19.661
	c-17.77,11.036-27.776,31.268-34.06,50.529c-5.763,17.64-9.205,36.411-10.536,55.082c-9.085,0.45-16.96,1.491-23.734,2.892
	c1.381-23.323,5.543-46.847,12.747-68.899c7.454-22.853,19.331-46.877,40.423-59.984c27.466-17.06,64.937-7.274,76.934,23.734
	C355.273,45.708,356.284,51.301,356.074,56.564z"/>
<path style="fill:#F48B2C;" d="M467.655,209.962c-4.555-6.37-9.603-12.346-15.147-17.848c-8.724-8.658-18.444-16.314-28.996-22.427
	c-29.852-17.295-64.3-19.726-96.361-7.401c0,0-16.664-20.658-70.819-20.658s-70.819,20.658-70.819,20.658
	C97.067,128.283,26.335,209.993,14.894,294.783c-3.714,27.524-1.409,55.66,6.807,82.118c8.124,26.162,21.657,50.969,39.879,71.013
	c71.86,79.04,128.098,42.214,128.098,42.214c12.073,12.148,63.025,14.237,66.47,14.365c0.126,0.005,0.241,0.005,0.367,0
	c3.445-0.128,54.397-2.217,66.47-14.365c0,0,56.239,36.826,128.099-42.215C508.917,389.443,516.002,277.563,467.655,209.962z"/>
<path style="fill:#F95428;" d="M259.629,325.824c-1.885-1.645-4.685-1.645-6.57,0c-8.707,7.602-30.929,29.038-19.108,40.522
	c2.758,2.68,6.89,4.089,11.115,4.089h11.277h11.277c4.225,0,8.357-1.409,11.115-4.089
	C290.558,354.862,268.336,333.426,259.629,325.824z"/>
<path style="fill:#E07A27;" d="M185.293,492.441c-14.528,6.664-63.666,21.512-123.711-44.525
	c-18.22-20.042-31.758-44.856-39.883-71.011c-8.215-26.465-10.516-54.601-6.804-82.127
	c11.327-83.958,80.776-164.884,168.016-133.466c-47.797,22.503-81.457,78.345-89.171,135.528
	c-3.862,28.616-1.461,57.863,7.074,85.369c8.445,27.195,22.513,52.98,41.454,73.822C157.397,472.67,171.856,484.367,185.293,492.441
	z"/>
<path style="fill:#F95428;" d="M200.839,277.402l-85.881-37.344c0,0-14.452,54.85,33.226,76.416
	C148.184,316.474,189.74,337.506,200.839,277.402z"/>
<path style="fill:#E54728;" d="M185.768,311.21c-16.189,16.089-37.582,5.263-37.582,5.263
	c-47.677-21.562-33.229-76.414-33.229-76.414l13.588,5.913c-0.911,17.76,2.892,47.617,35.17,62.216
	C163.715,308.189,174.041,313.411,185.768,311.21z"/>
<path style="fill:#F95428;" d="M312.014,277.402l85.881-37.344c0,0,14.452,54.85-33.226,76.416
	C364.668,316.474,323.113,337.506,312.014,277.402z"/>
<path style="fill:#E54728;" d="M327.085,311.21c16.189,16.089,37.582,5.263,37.582,5.263c47.677-21.562,33.229-76.414,33.229-76.414
	l-13.588,5.913c0.911,17.76-2.892,47.617-35.17,62.216C349.138,308.189,338.812,313.411,327.085,311.21z"/>
<path style="fill:#F95428;" d="M343.289,412.126l-32.366-9.349c-0.729-0.21-1.51-0.137-2.187,0.205l-17.709,8.948
	c-0.685,0.346-1.477,0.417-2.213,0.197l-31.529-9.42c-0.561-0.168-1.158-0.168-1.719,0l-31.529,9.42
	c-0.736,0.22-1.528,0.149-2.213-0.197l-17.709-8.948c-0.677-0.342-1.458-0.415-2.187-0.205l-32.366,9.349
	c-0.761,0.22-1.577,0.13-2.272-0.249l-25.482-13.918c-2.715-1.483-5.627,1.614-3.98,4.233l29.967,47.626
	c0.732,1.164,2.162,1.681,3.47,1.256l26.964-8.777c0.966-0.314,2.026-0.119,2.816,0.52l20.724,16.748
	c0.708,0.573,1.639,0.792,2.528,0.598l31.485-6.889c0.423-0.092,0.86-0.092,1.283,0l31.485,6.889c0.89,0.195,1.82-0.025,2.528-0.598
	l20.724-16.748c0.79-0.639,1.85-0.834,2.816-0.52l26.964,8.777c1.308,0.426,2.737-0.092,3.47-1.256l29.967-47.626
	c1.648-2.619-1.264-5.716-3.98-4.233l-25.482,13.918C344.867,412.256,344.05,412.346,343.289,412.126z"/>
<path style="fill:#E54728;" d="M294.238,453.902l5.283-1.161l-8.435,6.824c-0.71,0.57-1.641,0.79-2.531,0.6l-31.488-6.894
	c-0.42-0.09-0.86-0.09-1.281,0l-31.488,6.894c-0.891,0.19-1.821-0.03-2.531-0.6l-20.722-16.75c-0.79-0.64-1.851-0.831-2.812-0.52
	l-26.966,8.775c-1.311,0.43-2.742-0.09-3.472-1.251l-29.967-47.627c-1.641-2.621,1.271-5.713,3.982-4.232l25.485,13.918
	c0.69,0.38,1.511,0.47,2.271,0.25l32.359-9.355c0.13-0.04,0.27-0.07,0.4-0.09l24.454,38.872c0.881,1.391,2.581,2.001,4.142,1.501
	l32.188-10.486c1.161-0.37,2.421-0.14,3.362,0.62l24.744,19.991C292.067,453.872,293.167,454.132,294.238,453.902z"/>
<path d="M267.621,377.938h-22.555c-6.324,0-12.28-2.263-16.343-6.21c-3.974-3.861-5.923-8.855-5.637-14.443
	c0.891-17.379,23.986-36.462,28.607-40.112c2.727-2.155,6.575-2.153,9.302,0c4.621,3.65,27.715,22.734,28.606,40.112
	c0.287,5.588-1.662,10.582-5.636,14.443C279.901,375.675,273.944,377.938,267.621,377.938z M256.344,332.895
	c-8.508,7.662-17.934,18.54-18.269,25.164c-0.064,1.271,0.235,2.059,1.105,2.904c1.249,1.214,3.505,1.967,5.886,1.967h22.555
	c2.382,0,4.638-0.754,5.888-1.968c0.869-0.844,1.169-1.631,1.104-2.903C274.277,351.435,264.852,340.556,256.344,332.895z"/>
<path d="M256.332,512.002c-0.083,0-0.166-0.001-0.249-0.004c-8.663-0.287-49.287-2.199-67.082-13.017
	c-6.512,3.062-19.334,7.673-36.642,7.18c-22.478-0.658-57.436-10.42-96.33-53.2c-18.447-20.289-32.795-45.821-41.494-73.835
	c-8.478-27.307-10.926-56.819-7.076-85.347c5.88-43.579,26.081-84.485,55.421-112.227c3.011-2.847,7.761-2.715,10.609,0.296
	s2.715,7.761-0.296,10.609c-26.498,25.054-45.51,63.682-50.86,103.33c-3.559,26.376-1.299,53.656,6.537,78.89
	c8.052,25.933,21.284,49.512,38.264,68.189c27.646,30.406,56.935,47.094,84.703,48.259c20.699,0.885,33.641-7.218,33.77-7.299
	c2.975-1.898,6.91-1.489,9.396,1.012c7.134,7.178,40.063,11.416,61.33,12.152c21.268-0.737,54.197-4.975,61.332-12.152
	c2.511-2.526,6.453-2.939,9.433-0.988c1.333,0.849,34.046,21.017,81.403-8.991c3.499-2.216,8.136-1.178,10.356,2.324
	c2.218,3.501,1.177,8.137-2.324,10.356c-45.487,28.817-80.527,17.319-92.885,11.455c-17.805,10.808-58.406,12.718-67.066,13.005
	C256.498,512.001,256.415,512.002,256.332,512.002z"/>
<path d="M472.823,205.596c-4.849-6.78-10.221-13.108-15.964-18.808c-9.495-9.423-19.763-17.362-30.521-23.594
	c-30.379-17.6-65.134-20.928-98.366-9.531c-4.982-4.089-14.884-10.477-31.676-14.828c-10.104-27.306-12.486-50.012-7.036-67.503
	c2.311-7.393,6.878-17.159,15.525-21.704c4.686-2.467,10.23-1.904,12.682,0.033c0.599,0.473,2.183,1.725,1.127,5.924
	c-0.171,0.293-0.786,0.949-1.239,1.434c-0.875,0.933-1.962,2.094-2.923,3.585c-4.68,7.238-4.96,15.066-0.746,20.941
	c4.576,6.379,13.654,9.145,22.595,6.887c10.229-2.58,17.969-8.45,22.38-16.976c5.037-9.736,5.215-22.335,0.487-34.569
	c-6.263-16.196-18.824-28.166-35.369-33.704c-17.497-5.856-36.638-3.56-52.519,6.303c-19.177,11.912-33.439,32.858-43.6,64.03
	c-6.676,20.442-10.944,42.353-12.718,65.203c-17.058,4.351-27.088,10.814-32.116,14.94c-24.073-8.328-47.868-9.013-70.801-2.027
	c-3.965,1.207-6.2,5.399-4.993,9.365c1.208,3.965,5.405,6.199,9.365,4.993c21.068-6.416,43.103-5.305,65.488,3.302
	c3.039,1.168,6.488,0.242,8.534-2.293c0.107-0.133,8.839-9.995,33.655-15.007c0.667-0.134,1.344-0.26,2.021-0.385
	c0.451-0.083,0.893-0.169,1.355-0.25c0.985-0.171,1.985-0.329,2.993-0.48c0.175-0.026,0.342-0.056,0.518-0.082
	c7.556-1.102,15.743-1.659,24.437-1.659c3.053,0,6.042,0.07,8.963,0.207c0.278,0.013,0.543,0.032,0.819,0.046
	c1.111,0.057,2.215,0.121,3.306,0.198c0.58,0.041,1.142,0.091,1.711,0.138c0.739,0.06,1.478,0.12,2.207,0.189
	c0.766,0.073,1.516,0.154,2.261,0.237c0.477,0.052,0.954,0.105,1.427,0.161c0.907,0.109,1.801,0.224,2.675,0.346
	c0.233,0.032,0.465,0.066,0.697,0.099c29.473,4.266,40.247,15.518,40.95,16.289c2.022,2.627,5.394,3.436,8.496,2.244
	c30.24-11.628,62.17-9.178,89.906,6.889c9.645,5.589,18.888,12.742,27.472,21.261c5.147,5.108,9.968,10.789,14.328,16.887
	c46.949,65.646,39.566,172.331-15.801,228.306c-2.915,2.947-2.888,7.698,0.058,10.613c1.463,1.447,3.37,2.169,5.277,2.169
	c1.934,0,3.867-0.744,5.335-2.227C515.59,392.422,523.692,276.725,472.823,205.596z M230.25,135.738
	c1.857-20.164,5.774-39.487,11.679-57.566c9.02-27.671,21.204-45.969,37.25-55.935c7.692-4.776,16.376-7.223,25.093-7.223
	c4.964,0,9.938,0.793,14.744,2.403c12.232,4.094,21.512,12.931,26.134,24.883c3.179,8.225,3.246,16.339,0.183,22.259
	c-2.413,4.664-6.693,7.8-12.725,9.321c-3.435,0.869-6.042-0.132-6.724-1.082c-0.46-0.641,0.003-2.266,1.161-4.055
	c0.233-0.361,0.734-0.896,1.264-1.463c1.528-1.631,3.837-4.095,4.808-7.902c2.233-8.709-0.08-16.544-6.345-21.493
	c-7.509-5.933-19.423-6.566-28.973-1.54c-10.434,5.484-18.34,16.034-22.865,30.516c-7.078,22.653-2.322,46.407,4.235,68.531
	c-0.355-1.198-22.524-1.117-24.835-1.091c-7.475,0.083-15.206,0.327-22.635,1.268C231.221,135.629,230.725,135.673,230.25,135.738z"
	/>
<path d="M164.339,327.533c-10.056,0-17.969-3.6-19.353-4.27c-21.889-9.937-35.277-27.924-38.723-52.022
	c-2.534-17.709,1.274-32.475,1.437-33.095c0.558-2.116,2.013-3.885,3.983-4.84c1.97-0.957,4.259-1.003,6.266-0.13l85.881,37.344
	c3.203,1.392,5.021,4.81,4.387,8.245c-4.251,23.023-13.371,38.145-27.104,44.947C175.354,326.564,169.558,327.533,164.339,327.533z
	 M120.745,250.758c-1.555,14.941-0.37,44.901,30.532,58.879c0.1,0.045,0.198,0.092,0.296,0.142c0.083,0.04,12.174,5.864,22.99,0.428
	c8.178-4.109,14.108-13.639,17.666-28.366L120.745,250.758z"/>
<path d="M348.513,327.533c-5.219,0-11.013-0.969-16.774-3.822c-13.733-6.802-22.853-21.924-27.104-44.947
	c-0.634-3.435,1.184-6.853,4.387-8.245l85.881-37.344c2.006-0.873,4.296-0.827,6.266,0.13c1.97,0.955,3.425,2.723,3.983,4.84
	c0.163,0.62,3.971,15.386,1.437,33.095c-3.446,24.098-16.836,42.085-38.723,52.023C366.482,323.934,358.568,327.533,348.513,327.533
	z M320.623,281.841c3.574,14.794,9.542,24.343,17.777,28.421c10.781,5.34,22.76-0.425,22.879-0.483
	c0.098-0.05,0.196-0.097,0.296-0.142c17.283-7.818,27.43-21.451,30.157-40.521c1.004-7.017,0.81-13.48,0.329-18.338L320.623,281.841
	z"/>
<path d="M289.213,467.738c-0.752,0-1.51-0.081-2.263-0.245l-30.523-6.679l-30.522,6.679c-3.135,0.68-6.357-0.079-8.85-2.093
	l-18.823-15.211l-24.641,8.021c-4.588,1.495-9.581-0.319-12.147-4.4l-29.964-47.622c-2.587-4.112-2.089-9.252,1.238-12.792
	c3.328-3.539,8.429-4.352,12.691-2.024l23.854,13.029l30.586-8.834c2.559-0.741,5.278-0.484,7.655,0.718l16.107,8.137l29.81-8.907
	c1.968-0.585,4.046-0.587,6.012,0l29.813,8.907l16.11-8.139c2.372-1.2,5.091-1.455,7.65-0.717l30.588,8.835l23.853-13.029
	c4.263-2.328,9.363-1.516,12.691,2.024c3.327,3.539,3.825,8.68,1.239,12.792l-29.968,47.626c-2.562,4.079-7.555,5.883-12.142,4.397
	l-24.643-8.022L295.8,465.4C293.905,466.93,291.589,467.738,289.213,467.738z M256.425,445.697c0.751,0,1.504,0.082,2.251,0.245
	l29.368,6.427l19.044-15.39c2.78-2.244,6.464-2.924,9.856-1.818l23.627,7.692l18.886-30.015l-10.299,5.625
	c-2.452,1.337-5.276,1.647-7.955,0.873l-30.662-8.858l-16.13,8.15c-2.407,1.217-5.159,1.461-7.746,0.69l-30.24-9.035l-30.24,9.035
	c-2.586,0.77-5.338,0.528-7.749-0.692l-16.127-8.148l-30.665,8.858c-2.675,0.776-5.501,0.465-7.949-0.871l-10.302-5.627
	l18.887,30.015l23.627-7.692c3.392-1.105,7.076-0.425,9.852,1.815l19.047,15.393l29.372-6.427
	C254.925,445.778,255.675,445.697,256.425,445.697z M345.363,404.914l0.009,0.003C345.376,404.918,345.369,404.915,345.363,404.914z
	"/>
<g>
</g>
<g>
</g>
<g>
</g>
<g>
</g>
<g>
</g>
<g>
</g>
<g>
</g>
<g>
</g>
<g>
</g>
<g>
</g>
<g>
</g>
<g>
</g>
<g>
</g>
<g>
</g>
<g>
</g>
</svg>
