<?xml version="1.0" encoding="iso-8859-1"?>
<!-- Generator: Adobe Illustrator 19.0.0, SVG Export Plug-In . SVG Version: 6.00 Build 0)  -->
<svg version="1.1" id="Capa_1" xmlns="http://www.w3.org/2000/svg" xmlns:xlink="http://www.w3.org/1999/xlink" x="0px" y="0px"
	 viewBox="0 0 512.001 512.001" style="enable-background:new 0 0 512.001 512.001;" xml:space="preserve">
<path style="fill:#D7DBDD;" d="M108.902,105.793c16.376-0.746,95.758-7.357,145.024-65.717c1.12-1.326,3.111-1.455,4.358-0.247
	c13.395,12.978,83.613,76.661,153.179,57.501c2.107-0.58,4.121,1.164,3.791,3.324c-3.411,22.324-13.309,117.836,59.79,153.613
	c1.803,0.882,2.267,3.235,0.911,4.715c-14.167,15.457-76.599,88.288-59.917,154.402c0.469,1.857-0.881,3.67-2.795,3.735
	c-19.169,0.651-106.211,6.72-154.632,63.156c-1.288,1.502-3.641,1.379-4.752-0.258c-9.46-13.935-51.561-66.009-152.41-65.949
	c-1.821,0.001-3.239-1.584-2.994-3.389c2.29-16.903,7.929-93.23-65.115-152.737c-1.419-1.156-1.464-3.308-0.105-4.534
	c13.706-12.364,75.811-72.5,72.818-144.515C105.983,107.254,107.261,105.868,108.902,105.793z"/>
<path style="fill:#BDC4C6;" d="M318.031,438.069c-21.489,9.314-42.752,22.785-59.431,42.219c-1.284,1.496-3.63,1.368-4.737-0.263
	c-9.449-13.923-51.549-66.019-152.421-65.958c-1.819,0.001-3.234-1.582-2.99-3.384c2.29-16.893,7.937-93.233-65.119-152.742
	c-1.416-1.154-1.461-3.301-0.105-4.525c13.696-12.355,75.821-72.504,72.823-144.531c-0.068-1.638,1.205-3.018,2.843-3.093
	c9.579-0.436,40.774-2.881,74.874-16.563c-0.681,69.201-59.589,126.219-72.908,138.234c-1.36,1.227-1.322,3.382,0.098,4.54
	c73.043,59.511,67.405,135.838,65.115,152.742c-0.245,1.805,1.172,3.39,2.994,3.389C254.928,388.092,297.541,417.54,318.031,438.069
	z"/>
<path d="M504.52,248.519h-24.114c-32.787-15.157-52.413-44.663-58.324-87.746c-3.891-28.362-0.309-53.832,0.925-61.199
	l14.014-14.014c2.921-2.921,2.921-7.658,0-10.579c-2.922-2.921-7.658-2.921-10.58,0l-14.357,14.357
	c-66.171,20.375-135.775-42.547-148.602-54.901V7.481c0-4.132-3.349-7.481-7.481-7.481c-4.132,0-7.481,3.349-7.481,7.481v27.39
	c-10.988,13.099-24.434,24.476-40.013,33.833c-3.542,2.127-4.689,6.722-2.562,10.264c2.128,3.541,6.726,4.688,10.264,2.561
	c11.949-7.177,22.751-15.471,32.31-24.747v71.26c-2.534,3.219-32.795,40.304-75.249,34.648l-50.527-50.527
	c11.271-1.286,27.289-3.942,45.241-9.439c3.951-1.21,6.172-5.392,4.963-9.343c-1.209-3.951-5.392-6.172-9.342-4.963
	c-25.394,7.775-47.011,9.501-54.726,9.881L85.562,74.981c-2.922-2.921-7.658-2.921-10.58,0c-2.921,2.921-2.921,7.658,0,10.579
	l23.582,23.582c2.924,69.84-59.933,129.382-71.094,139.377H7.482c-4.132,0-7.481,3.35-7.481,7.481c0,4.131,3.349,7.481,7.481,7.481
	h20.797c32.573,26.411,52.982,59.219,60.666,97.565c4.852,24.218,2.859,43.315,1.973,49.458L74.981,426.44
	c-2.921,2.921-2.921,7.658,0,10.579c1.461,1.461,3.376,2.191,5.29,2.191s3.829-0.731,5.29-2.191l15.467-15.466
	c0.174,0,0.351-0.003,0.525-0.003c57.043,0,93.975,17.43,115.037,32.224c19.222,13.502,29.05,27.282,31.93,31.743v19.003
	c0,4.131,3.349,7.481,7.481,7.481c4.132,0,7.481-3.349,7.481-7.481v-18.404c46.457-55.233,133.319-60.942,150.529-61.526
	l12.43,12.43c1.461,1.461,3.376,2.191,5.29,2.191s3.829-0.731,5.29-2.191c2.921-2.921,2.921-7.658,0-10.579l-13.287-13.287
	c-5.227-19.079-3.636-40.778,4.779-64.545c1.378-3.894-0.661-8.169-4.556-9.548c-3.891-1.378-8.169,0.659-9.549,4.555
	c-6.453,18.226-9.291,35.52-8.527,51.685l-53.859-53.859c1.946-20.068,9.893-62.324,28.83-77.961h81.241
	c-6.61,7.916-15.318,19.145-23.946,32.654c-2.224,3.482-1.204,8.107,2.278,10.331c1.248,0.797,2.642,1.177,4.02,1.177
	c2.468,0,4.884-1.22,6.312-3.455c12.866-20.146,26.188-35.242,31.228-40.707h22.534c4.132,0,7.481-3.349,7.481-7.481
	S508.652,248.519,504.52,248.519z M407.202,162.384c5.077,37.626,20.374,66.913,44.707,86.135h-60.762
	c-0.513-0.849-1.196-1.602-2.027-2.201c-0.476-0.343-46.75-34.293-37.186-75.673l54.021-54.02
	C405.073,128.819,404.852,144.974,407.202,162.384z M274.061,248.519l61.704-61.704c1.838,27.487,20.306,49.631,32.926,61.704
	H274.061z M237.941,248.519h-95.827c18.834-22.253,27.95-48.181,32.042-63.785L237.941,248.519z M237.941,263.481l-60.859,60.859
	c-3.081-27.716-18.933-48.372-31.76-60.859H237.941z M248.52,274.06v83.99c-17.734-16.556-43.715-21.541-61.076-22.914
	L248.52,274.06z M263.482,274.06l58.435,58.435c-10.326,1.223-23.04,5.843-38.485,16.229c-7.633,5.133-14.49,10.691-19.95,15.486
	V274.06L263.482,274.06z M263.482,156.56c15.411,15.186,33.309,20.189,47.262,21.408c4.403,0.385,8.594,0.406,12.489,0.221
	l-59.751,59.751V156.56z M302.674,82.917c31.708,18.749,62.613,27.206,90.771,25.059l-52.278,52.278
	c-8.829,2.652-52.408,13.195-77.686-27.675V54.676C272.625,62.548,286.168,73.158,302.674,82.917z M248.52,149.823v88.117
	l-59.925-59.925C215.398,175.957,236.279,161.125,248.52,149.823z M76.371,216.033c22.006-30.651,34.549-62.176,36.86-92.224
	l48.437,48.437c-2.378,11.794-11.994,50.186-40.202,76.274h-72.39C56.695,240.718,66.586,229.66,76.371,216.033z M103.754,358.809
	c-5.104-26.022-18.536-62.293-52.898-95.328h71.178c8.171,5.815,43.2,33.322,40.459,75.448l-55.44,55.44
	C107.157,384.836,106.465,372.629,103.754,358.809z M225.989,442.095c-21.113-15.019-56.789-32.497-110.351-35.152l57.292-57.293
	c12.082-0.216,61.017,0.987,75.59,33.577v78.392C242.925,455.68,235.504,448.865,225.989,442.095z M354.935,417.902
	c-37.51,9.218-68.727,25.142-91.453,46.494v-79.719c15.554-15.895,53.998-47.663,76.142-34.476l60.255,60.255
	C388.625,411.445,372.755,413.523,354.935,417.902z M344.204,301.878c-2.635,9.672-4.377,18.908-5.507,26.238l-64.635-64.635h86.818
	C354.14,273.072,348.56,285.884,344.204,301.878z"/>
<g>
</g>
<g>
</g>
<g>
</g>
<g>
</g>
<g>
</g>
<g>
</g>
<g>
</g>
<g>
</g>
<g>
</g>
<g>
</g>
<g>
</g>
<g>
</g>
<g>
</g>
<g>
</g>
<g>
</g>
</svg>
